<svg width="34" height="34" viewBox="0 0 34 34" fill="none" xmlns="http://www.w3.org/2000/svg">
<path d="M13.6667 24.5V9.49998L23.6667 17L13.6667 24.5ZM33.6667 17C33.6667 26.2 26.2 33.6666 17 33.6666C7.8 33.6666 0.333332 26.2 0.333332 17C0.333332 15.0166 0.699999 13.1333 1.33333 11.3666L4.46667 12.5C3.95 13.9 3.66667 15.4166 3.66667 17C3.66667 24.35 9.65 30.3333 17 30.3333C24.35 30.3333 30.3333 24.35 30.3333 17C30.3333 9.64998 24.35 3.66665 17 3.66665C15.4167 3.66665 13.9167 3.94998 12.5167 4.46665L11.3833 1.31665C13.15 0.69998 15.0333 0.333313 17 0.333313C26.2 0.333313 33.6667 7.79998 33.6667 17ZM6.16667 3.66665C4.78333 3.66665 3.66667 4.78331 3.66667 6.16665C3.66667 7.54998 4.78333 8.66665 6.16667 8.66665C7.55 8.66665 8.66667 7.54998 8.66667 6.16665C8.66667 4.78331 7.55 3.66665 6.16667 3.66665Z" fill="#999999"/>
</svg>
