<svg width="32" height="23" viewBox="0 0 32 23" fill="none" xmlns="http://www.w3.org/2000/svg">
<path d="M28.8 0H3.2C1.432 0 0.016 1.47036 0.016 3.28571L0 19.7143C0 21.5296 1.432 23 3.2 23H28.8C30.568 23 32 21.5296 32 19.7143V3.28571C32 1.47036 30.568 0 28.8 0ZM14.4 4.92857H17.6V8.21429H14.4V4.92857ZM14.4 9.85714H17.6V13.1429H14.4V9.85714ZM9.6 4.92857H12.8V8.21429H9.6V4.92857ZM9.6 9.85714H12.8V13.1429H9.6V9.85714ZM8 13.1429H4.8V9.85714H8V13.1429ZM8 8.21429H4.8V4.92857H8V8.21429ZM22.4 19.7143H9.6V16.4286H22.4V19.7143ZM22.4 13.1429H19.2V9.85714H22.4V13.1429ZM22.4 8.21429H19.2V4.92857H22.4V8.21429ZM27.2 13.1429H24V9.85714H27.2V13.1429ZM27.2 8.21429H24V4.92857H27.2V8.21429Z" fill="white"/>
</svg>
